<svg xmlns:dc="http://purl.org/dc/elements/1.1/" xmlns:cc="http://creativecommons.org/ns#" xmlns:rdf="http://www.w3.org/1999/02/22-rdf-syntax-ns#" xmlns:svg="http://www.w3.org/2000/svg" xmlns="http://www.w3.org/2000/svg" xmlns:sodipodi="http://sodipodi.sourceforge.net/DTD/sodipodi-0.dtd" xmlns:inkscape="http://www.inkscape.org/namespaces/inkscape" viewBox="0 0 100 125" version="1.1" x="0px" y="0px"><g transform="translate(0,-952.36218)"><path style="opacity:1;fill:#000000;fill-opacity:1;stroke:none;stroke-opacity:1" d="m 70.999401,1016.6027 c 0,-1.9509 -1.570605,-3.5216 -3.521537,-3.5216 l -13.811052,0 c -1.950933,0 -3.521539,1.5707 -3.521539,3.5216 l 0,13.8084 c 0,1.9509 1.570606,3.5215 3.521539,3.5215 l 13.811052,0 c 1.950932,0 3.521537,-1.5706 3.521537,-3.5215 l 0,-13.8084 z m -2.220259,1.4692 0,10.8699 c 0,1.5359 -1.23451,2.7732 -2.770465,2.7732 l -10.87268,0 c -1.535953,0 -2.770464,-1.2373 -2.770464,-2.7732 l 0,-10.8699 c 0,-1.5359 1.234511,-2.7733 2.770464,-2.7733 l 10.87268,0 c 1.535955,0 2.770465,1.2374 2.770465,2.7733 z"/><path d="m 49.854727,1016.6027 c 0,-1.9509 -1.570605,-3.5216 -3.521537,-3.5216 l -13.811052,0 c -1.950933,0 -3.521539,1.5707 -3.521539,3.5216 l 0,13.8084 c 0,1.9509 1.570606,3.5215 3.521539,3.5215 l 13.811052,0 c 1.950932,0 3.521537,-1.5706 3.521537,-3.5215 l 0,-13.8084 z m -2.220259,1.4692 0,10.8699 c 0,1.5359 -1.23451,2.7732 -2.770465,2.7732 l -10.87268,0 c -1.535953,0 -2.770464,-1.2373 -2.770464,-2.7732 l 0,-10.8699 c 0,-1.5359 1.234511,-2.7733 2.770464,-2.7733 l 10.87268,0 c 1.535955,0 2.770465,1.2374 2.770465,2.7733 z" style="opacity:1;fill:#000000;fill-opacity:1;stroke:none;stroke-opacity:1"/><path d="m 70.999401,995.45803 c 0,-1.9509 -1.570605,-3.5216 -3.521537,-3.5216 l -13.811052,0 c -1.950933,0 -3.521539,1.5707 -3.521539,3.5216 l 0,13.80837 c 0,1.9509 1.570606,3.5215 3.521539,3.5215 l 13.811052,0 c 1.950932,0 3.521537,-1.5706 3.521537,-3.5215 l 0,-13.80837 z m -2.220259,1.4692 0,10.86987 c 0,1.5359 -1.23451,2.7732 -2.770465,2.7732 l -10.87268,0 c -1.535953,0 -2.770464,-1.2373 -2.770464,-2.7732 l 0,-10.86987 c 0,-1.5359 1.234511,-2.7733 2.770464,-2.7733 l 10.87268,0 c 1.535955,0 2.770465,1.2374 2.770465,2.7733 z" style="opacity:1;fill:#000000;fill-opacity:1;stroke:none;stroke-opacity:1"/><path style="opacity:1;fill:#000000;fill-opacity:1;stroke:none;stroke-opacity:1" d="m 70.999401,974.31336 c 0,-1.9509 -1.570605,-3.5216 -3.521537,-3.5216 l -13.811052,0 c -1.950933,0 -3.521539,1.5707 -3.521539,3.5216 l 0,13.80837 c 0,1.9509 1.570606,3.5215 3.521539,3.5215 l 13.811052,0 c 1.950932,0 3.521537,-1.5706 3.521537,-3.5215 l 0,-13.80837 z m -2.220259,1.4692 0,10.86987 c 0,1.5359 -1.23451,2.7732 -2.770465,2.7732 l -10.87268,0 c -1.535953,0 -2.770464,-1.2373 -2.770464,-2.7732 l 0,-10.86987 c 0,-1.5359 1.234511,-2.7733 2.770464,-2.7733 l 10.87268,0 c 1.535955,0 2.770465,1.2374 2.770465,2.7733 z"/></g><text x="0" y="115" fill="#000000" font-size="5px" font-weight="bold" font-family="'Helvetica Neue', Helvetica, Arial-Unicode, Arial, Sans-serif">Created by Kyle Dodson</text><text x="0" y="120" fill="#000000" font-size="5px" font-weight="bold" font-family="'Helvetica Neue', Helvetica, Arial-Unicode, Arial, Sans-serif">from the Noun Project</text></svg>