<svg xmlns:dc="http://purl.org/dc/elements/1.1/" xmlns:cc="http://creativecommons.org/ns#" xmlns:rdf="http://www.w3.org/1999/02/22-rdf-syntax-ns#" xmlns:svg="http://www.w3.org/2000/svg" xmlns="http://www.w3.org/2000/svg" xmlns:sodipodi="http://sodipodi.sourceforge.net/DTD/sodipodi-0.dtd" xmlns:inkscape="http://www.inkscape.org/namespaces/inkscape" viewBox="0 0 100 125" version="1.1" x="0px" y="0px"><g transform="translate(0,-952.36218)"><path style="opacity:1;fill:#000000;fill-opacity:1;stroke:none;stroke-opacity:1" d="m 88.157292,1012.5831 c 1.912882,0 3.452854,-1.5395 3.452854,-3.4518 l 0,-13.53818 c 0,-1.91239 -1.539972,-3.45195 -3.452854,-3.45195 l -13.538911,0 c -1.91288,0 -3.452852,1.53956 -3.452852,3.45195 l 0,13.53818 c 0,1.9123 1.539972,3.4518 3.452852,3.4518 l 13.538911,0 z m -1.440391,-2.1764 -10.65799,0 c -1.505858,0 -2.719191,-1.2099 -2.719191,-2.7158 l 0,-10.65763 c 0,-1.50561 1.213333,-2.71571 2.719191,-2.71571 l 10.65799,0 c 1.505858,0 2.719053,1.2101 2.719053,2.71571 l 0,10.65763 c 0,1.5059 -1.213195,2.7158 -2.719053,2.7158 z"/><path d="m 67.232084,1012.5831 c 1.912873,0 3.45284,-1.5395 3.45284,-3.4518 l 0,-13.53818 c 0,-1.91239 -1.539967,-3.45195 -3.45284,-3.45195 l -13.538938,0 c -1.912874,0 -3.452839,1.53956 -3.452839,3.45195 l 0,13.53818 c 0,1.9123 1.539965,3.4518 3.452839,3.4518 l 13.538938,0 z m -1.440524,-2.1764 -10.658029,0 c -1.505852,0 -2.719041,-1.2099 -2.719041,-2.7158 l 0,-10.65763 c 0,-1.50561 1.213189,-2.71571 2.719041,-2.71571 l 10.658029,0 c 1.505991,0 2.719179,1.2101 2.719179,2.71571 l 0,10.65763 c 0,1.5059 -1.213188,2.7158 -2.719179,2.7158 z" style="opacity:1;fill:#000000;fill-opacity:1;stroke:none;stroke-opacity:1"/><path style="opacity:1;fill:#000000;fill-opacity:1;stroke:none;stroke-opacity:1" d="m 46.3068,1012.5831 c 1.912863,0 3.452821,-1.5395 3.452821,-3.4518 l 0,-13.53818 c 0,-1.91239 -1.539958,-3.45195 -3.452821,-3.45195 l -13.538975,0 c -1.912863,0 -3.452821,1.53956 -3.452821,3.45195 l 0,13.53818 c 0,1.9123 1.539958,3.4518 3.452821,3.4518 l 13.538975,0 z m -1.440516,-2.1764 -10.657943,0 c -1.505845,0 -2.719026,-1.2099 -2.719026,-2.7158 l 0,-10.65763 c 0,-1.50561 1.213181,-2.71571 2.719026,-2.71571 l 10.657943,0 c 1.505845,0 2.719164,1.2101 2.719164,2.71571 l 0,10.65763 c 0,1.5059 -1.213319,2.7158 -2.719164,2.7158 z"/><path d="m 25.381616,1012.5831 c 1.91288,0 3.452852,-1.5395 3.452852,-3.4518 l 0,-13.53818 c 0,-1.91239 -1.539972,-3.45195 -3.452852,-3.45195 l -13.538911,0 c -1.9128818,0 -3.4528538,1.53956 -3.4528538,3.45195 l 0,13.53818 c 0,1.9123 1.539972,3.4518 3.4528538,3.4518 l 13.538911,0 z m -1.440392,-2.1764 -10.657991,0 c -1.505857,0 -2.719052,-1.2099 -2.719052,-2.7158 l 0,-10.65763 c 0,-1.50561 1.213195,-2.71571 2.719052,-2.71571 l 10.657991,0 c 1.50572,0 2.719052,1.2101 2.719052,2.71571 l 0,10.65763 c 0,1.5059 -1.213332,2.7158 -2.719052,2.7158 z" style="opacity:1;fill:#000000;fill-opacity:1;stroke:none;stroke-opacity:1"/></g><text x="0" y="115" fill="#000000" font-size="5px" font-weight="bold" font-family="'Helvetica Neue', Helvetica, Arial-Unicode, Arial, Sans-serif">Created by Kyle Dodson</text><text x="0" y="120" fill="#000000" font-size="5px" font-weight="bold" font-family="'Helvetica Neue', Helvetica, Arial-Unicode, Arial, Sans-serif">from the Noun Project</text></svg>