<svg xmlns:dc="http://purl.org/dc/elements/1.1/" xmlns:cc="http://creativecommons.org/ns#" xmlns:rdf="http://www.w3.org/1999/02/22-rdf-syntax-ns#" xmlns:svg="http://www.w3.org/2000/svg" xmlns="http://www.w3.org/2000/svg" xmlns:sodipodi="http://sodipodi.sourceforge.net/DTD/sodipodi-0.dtd" xmlns:inkscape="http://www.inkscape.org/namespaces/inkscape" viewBox="0 0 100 125" version="1.1" x="0px" y="0px"><g transform="translate(0,-952.36218)"><path d="m 22.092001,981.45839 c -1.944655,0 -3.510207,1.56512 -3.510207,3.50927 l 0,13.76296 c 0,1.94408 1.565552,3.50928 3.510207,3.50928 l 13.763849,0 c 1.944655,0 3.510206,-1.5652 3.510206,-3.50928 l 0,-13.76296 c 0,-1.94413 -1.565551,-3.50927 -3.510206,-3.50927 l -13.763848,0 z m 1.464414,2.21249 10.835022,0 c 1.530898,0 2.764288,1.23032 2.764288,2.76081 l 0,10.83488 c 0,1.5305 -1.23339,2.76083 -2.764288,2.76083 l -10.835021,0 c -1.530898,0 -2.764287,-1.23031 -2.764287,-2.76083 l 0,-10.83488 c 0,-1.53049 1.233389,-2.76081 2.764287,-2.76081 z" style="opacity:1;fill:#000000;fill-opacity:1;stroke:none;stroke-opacity:1"/><path style="opacity:1;fill:#000000;fill-opacity:1;stroke:none;stroke-opacity:1" d="m 43.118075,981.45835 c -1.944654,0 -3.510206,1.56515 -3.510206,3.50929 l 0,13.76296 c 0,1.9442 1.565552,3.5093 3.510206,3.5093 l 13.763848,0 c 1.944654,0 3.510205,-1.5651 3.510205,-3.5093 l 0,-13.76296 c 0,-1.94414 -1.565551,-3.50929 -3.510205,-3.50929 l -13.763848,0 z m 1.464415,2.2125 10.83502,0 c 1.530898,0 2.764288,1.23033 2.764288,2.76081 l 0,10.83492 c 0,1.53049 -1.23339,2.76082 -2.764288,2.76082 l -10.83502,0 c -1.530898,0 -2.764288,-1.23033 -2.764288,-2.76082 l 0,-10.83492 c 0,-1.53048 1.23339,-2.76081 2.764288,-2.76081 z"/><path d="m 43.118075,1002.4844 c -1.944654,0 -3.510206,1.5652 -3.510206,3.5093 l 0,13.763 c 0,1.9441 1.565552,3.5093 3.510206,3.5093 l 13.763848,0 c 1.944654,0 3.510205,-1.5652 3.510205,-3.5093 l 0,-13.763 c 0,-1.9441 -1.565551,-3.5093 -3.510205,-3.5093 l -13.763848,0 z m 1.464415,2.2126 10.83502,0 c 1.530898,0 2.764288,1.2303 2.764288,2.7608 l 0,10.8348 c 0,1.5305 -1.23339,2.7609 -2.764288,2.7609 l -10.83502,0 c -1.530898,0 -2.764288,-1.2304 -2.764288,-2.7609 l 0,-10.8348 c 0,-1.5305 1.23339,-2.7608 2.764288,-2.7608 z" style="opacity:1;fill:#000000;fill-opacity:1;stroke:none;stroke-opacity:1"/><path style="opacity:1;fill:#000000;fill-opacity:1;stroke:none;stroke-opacity:1" d="m 64.144148,1002.4844 c -1.944655,0 -3.510207,1.5652 -3.510207,3.5093 l 0,13.763 c 0,1.9441 1.565551,3.5092 3.510207,3.5092 l 13.763848,0 c 1.944655,0 3.510209,-1.5651 3.510209,-3.5092 l 0,-13.763 c 0,-1.9441 -1.565554,-3.5093 -3.510209,-3.5093 l -13.763848,0 z m 1.464412,2.2126 10.835023,0 c 1.530896,0 2.76429,1.2302 2.76429,2.7607 l 0,10.8348 c 0,1.5306 -1.233394,2.7609 -2.76429,2.7609 l -10.835023,0 c -1.530895,0 -2.764287,-1.2303 -2.764287,-2.7609 l 0,-10.8348 c 0,-1.5305 1.233392,-2.7607 2.764287,-2.7607 z"/></g><text x="0" y="115" fill="#000000" font-size="5px" font-weight="bold" font-family="'Helvetica Neue', Helvetica, Arial-Unicode, Arial, Sans-serif">Created by Kyle Dodson</text><text x="0" y="120" fill="#000000" font-size="5px" font-weight="bold" font-family="'Helvetica Neue', Helvetica, Arial-Unicode, Arial, Sans-serif">from the Noun Project</text></svg>