<svg xmlns:dc="http://purl.org/dc/elements/1.1/" xmlns:cc="http://creativecommons.org/ns#" xmlns:rdf="http://www.w3.org/1999/02/22-rdf-syntax-ns#" xmlns:svg="http://www.w3.org/2000/svg" xmlns="http://www.w3.org/2000/svg" xmlns:sodipodi="http://sodipodi.sourceforge.net/DTD/sodipodi-0.dtd" xmlns:inkscape="http://www.inkscape.org/namespaces/inkscape" viewBox="0 0 100 125" version="1.1" x="0px" y="0px"><g transform="translate(0,-952.36218)"><path style="opacity:1;fill:#000000;fill-opacity:1;stroke:none;stroke-opacity:1" d="m 71.000835,974.33509 c 0,-1.95437 -1.573368,-3.52773 -3.527731,-3.52773 l -13.835323,0 c -1.95432,0 -3.527688,1.57336 -3.527688,3.52773 l 0,13.83257 c 0,1.95437 1.573368,3.52774 3.527688,3.52774 l 13.835323,0 c 1.954363,0 3.527731,-1.57337 3.527731,-3.52774 l 0,-13.83257 z m -2.224121,1.47173 0,10.88912 c 0,1.53854 -1.236794,2.77809 -2.775337,2.77809 l -10.891869,0 c -1.538542,0 -2.775392,-1.23955 -2.775392,-2.77809 l 0,-10.88912 c 0,-1.53854 1.23685,-2.77809 2.775392,-2.77809 l 10.891869,0 c 1.538543,0 2.775337,1.23955 2.775337,2.77809 z"/><path d="m 71.000835,995.44592 c 0,-1.95436 -1.573368,-3.52773 -3.527731,-3.52773 l -13.835309,0 c -1.954334,0 -3.527702,1.57337 -3.527702,3.52773 l 0,13.83258 c 0,1.9544 1.573368,3.5277 3.527702,3.5277 l 13.835309,0 c 1.954363,0 3.527731,-1.5733 3.527731,-3.5277 l 0,-13.83258 z m -2.224121,1.47173 0,10.88905 c 0,1.5386 -1.236794,2.7782 -2.775323,2.7782 l -10.891869,0 c -1.538542,0 -2.775406,-1.2396 -2.775406,-2.7782 l 0,-10.88905 c 0,-1.53855 1.236864,-2.77809 2.775406,-2.77809 l 10.891869,0 c 1.538529,0 2.775323,1.23954 2.775323,2.77809 z" style="opacity:1;fill:#000000;fill-opacity:1;stroke:none;stroke-opacity:1"/><path style="opacity:1;fill:#000000;fill-opacity:1;stroke:none;stroke-opacity:1" d="m 49.889963,995.44592 c 0,-1.95436 -1.573368,-3.52773 -3.527731,-3.52773 l -13.835337,0 c -1.954363,0 -3.527731,1.57337 -3.527731,3.52773 l 0,13.83258 c 0,1.9544 1.573368,3.5277 3.527731,3.5277 l 13.835337,0 c 1.954363,0 3.527731,-1.5733 3.527731,-3.5277 l 0,-13.83258 z m -2.224023,1.47173 0,10.88905 c 0,1.5386 -1.236822,2.7782 -2.775336,2.7782 l -10.89194,0 c -1.538513,0 -2.775336,-1.2396 -2.775336,-2.7782 l 0,-10.88905 c 0,-1.53855 1.236823,-2.77809 2.775336,-2.77809 l 10.89194,0 c 1.538514,0 2.775336,1.23954 2.775336,2.77809 z"/><path d="m 49.889963,1016.5568 c 0,-1.9544 -1.573368,-3.5278 -3.527731,-3.5278 l -13.835337,0 c -1.954363,0 -3.527731,1.5734 -3.527731,3.5278 l 0,13.8325 c 0,1.9543 1.573368,3.5277 3.527731,3.5277 l 13.835337,0 c 1.954363,0 3.527731,-1.5734 3.527731,-3.5277 l 0,-13.8325 z m -2.224023,1.4717 0,10.889 c 0,1.5387 -1.236822,2.7782 -2.775336,2.7782 l -10.89194,0 c -1.538513,0 -2.775336,-1.2395 -2.775336,-2.7782 l 0,-10.889 c 0,-1.5386 1.236823,-2.7781 2.775336,-2.7781 l 10.89194,0 c 1.538514,0 2.775336,1.2395 2.775336,2.7781 z" style="opacity:1;fill:#000000;fill-opacity:1;stroke:none;stroke-opacity:1"/></g><text x="0" y="115" fill="#000000" font-size="5px" font-weight="bold" font-family="'Helvetica Neue', Helvetica, Arial-Unicode, Arial, Sans-serif">Created by Kyle Dodson</text><text x="0" y="120" fill="#000000" font-size="5px" font-weight="bold" font-family="'Helvetica Neue', Helvetica, Arial-Unicode, Arial, Sans-serif">from the Noun Project</text></svg>