<svg xmlns:dc="http://purl.org/dc/elements/1.1/" xmlns:cc="http://creativecommons.org/ns#" xmlns:rdf="http://www.w3.org/1999/02/22-rdf-syntax-ns#" xmlns:svg="http://www.w3.org/2000/svg" xmlns="http://www.w3.org/2000/svg" xmlns:sodipodi="http://sodipodi.sourceforge.net/DTD/sodipodi-0.dtd" xmlns:inkscape="http://www.inkscape.org/namespaces/inkscape" viewBox="0 0 100 125" version="1.1" x="0px" y="0px"><g transform="translate(0,-952.36218)"><g transform="matrix(0.6607246,0,0,0.65832821,16.96377,342.47892)"><path style="opacity:1;fill:#000000;fill-opacity:1;stroke:none;stroke-opacity:1" d="m 7.8979544,1002.1969 c -2.9358243,0 -5.2993218,-2.36348 -5.2993218,-5.2993 l 0,-20.78332 c 0,-2.93583 2.3634975,-5.29933 5.2993218,-5.29933 l 20.7791366,0 c 2.935824,0 5.299322,2.3635 5.299322,5.29933 l 0,20.78332 c 0,2.93582 -2.363498,5.2993 -5.299322,5.2993 l -20.7791366,0 z m 2.2108116,-3.34109 16.357516,0 c 2.31118,0 4.173216,-1.85795 4.173216,-4.16911 l 0,-16.36155 c 0,-2.31135 -1.862036,-4.16908 -4.173216,-4.16908 l -16.357516,0 c -2.3111808,0 -4.1732162,1.85773 -4.1732162,4.16908 l 0,16.36155 c 0,2.31116 1.8620354,4.16911 4.1732162,4.16911 z"/><path d="m 39.610431,1033.9093 c -2.935824,0 -5.299322,-2.3635 -5.299322,-5.2993 l 0,-20.7833 c 0,-2.9358 2.363498,-5.2993 5.299322,-5.2993 l 20.779137,0 c 2.935824,0 5.299321,2.3635 5.299321,5.2993 l 0,20.7833 c 0,2.9358 -2.363497,5.2993 -5.299321,5.2993 l -20.779137,0 z m 2.210811,-3.3411 16.357517,0 c 2.31118,0 4.173215,-1.8577 4.173215,-4.1691 l 0,-16.3615 c 0,-2.3112 -1.862035,-4.1691 -4.173215,-4.1691 l -16.357517,0 c -2.31118,0 -4.173215,1.8579 -4.173215,4.1691 l 0,16.3615 c 0,2.3114 1.862035,4.1691 4.173215,4.1691 z" style="opacity:1;fill:#000000;fill-opacity:1;stroke:none;stroke-opacity:1"/><path style="opacity:1;fill:#000000;fill-opacity:1;stroke:none;stroke-opacity:1" d="m 39.610431,1002.1969 c -2.935824,0 -5.299322,-2.36348 -5.299322,-5.2993 l 0,-20.78332 c 0,-2.93583 2.363498,-5.29933 5.299322,-5.29933 l 20.779137,0 c 2.935824,0 5.299321,2.3635 5.299321,5.29933 l 0,20.78332 c 0,2.93582 -2.363497,5.2993 -5.299321,5.2993 l -20.779137,0 z m 2.210811,-3.34109 16.357517,0 c 2.31118,0 4.173215,-1.85795 4.173215,-4.16911 l 0,-16.36155 c 0,-2.31114 -1.862035,-4.16908 -4.173215,-4.16908 l -16.357517,0 c -2.31118,0 -4.173215,1.85794 -4.173215,4.16908 l 0,16.36155 c 0,2.31116 1.862035,4.16911 4.173215,4.16911 z"/><path d="m 71.322908,1002.1969 c -2.935824,0 -5.299322,-2.36348 -5.299322,-5.2993 l 0,-20.78332 c 0,-2.93583 2.363498,-5.29933 5.299322,-5.29933 l 20.779137,0 c 2.935824,0 5.299321,2.3635 5.299321,5.29933 l 0,20.78332 c 0,2.93582 -2.363497,5.2993 -5.299321,5.2993 l -20.779137,0 z m 2.210811,-3.34109 16.357516,0 c 2.311181,0 4.173216,-1.85795 4.173216,-4.16911 l 0,-16.36155 c 0,-2.31114 -1.862035,-4.16908 -4.173216,-4.16908 l -16.357516,0 c -2.31118,0 -4.173216,1.85794 -4.173216,4.16908 l 0,16.36155 c 0,2.31116 1.862036,4.16911 4.173216,4.16911 z" style="opacity:1;fill:#000000;fill-opacity:1;stroke:none;stroke-opacity:1"/></g></g></svg>