<!-- Generated by IcoMoon.io -->
<svg version="1.1" xmlns="http://www.w3.org/2000/svg" width="26" height="32" viewBox="0 0 26 32">
<title>tetris-J</title>
<path d="M18.176 16.446c0-0.499-0.402-0.902-0.901-0.902h-3.536c-0.499 0-0.902 0.402-0.902 0.902v3.535c0 0.499 0.402 0.901 0.902 0.901h3.536c0.499 0 0.901-0.402 0.901-0.901v-3.535zM17.607 16.822v2.783c0 0.393-0.316 0.71-0.709 0.71h-2.783c-0.393 0-0.709-0.317-0.709-0.71v-2.783c0-0.393 0.316-0.71 0.709-0.71h2.783c0.393 0 0.709 0.317 0.709 0.71z"></path>
<path d="M12.763 16.446c0-0.499-0.402-0.902-0.902-0.902h-3.536c-0.499 0-0.902 0.402-0.902 0.902v3.535c0 0.499 0.402 0.901 0.902 0.901h3.536c0.499 0 0.902-0.402 0.902-0.901v-3.535zM12.194 16.822v2.783c0 0.393-0.316 0.71-0.709 0.71h-2.783c-0.393 0-0.709-0.317-0.709-0.71v-2.783c0-0.393 0.316-0.71 0.709-0.71h2.783c0.393 0 0.709 0.317 0.709 0.71z"></path>
<path d="M18.176 11.033c0-0.499-0.402-0.902-0.901-0.902h-3.536c-0.499 0-0.902 0.402-0.902 0.902v3.535c0 0.499 0.402 0.902 0.902 0.902h3.536c0.499 0 0.901-0.402 0.901-0.902v-3.535zM17.607 11.409v2.783c0 0.393-0.316 0.71-0.709 0.71h-2.783c-0.393 0-0.709-0.317-0.709-0.71v-2.783c0-0.393 0.316-0.71 0.709-0.71h2.783c0.393 0 0.709 0.317 0.709 0.71z"></path>
<path d="M18.176 5.62c0-0.499-0.402-0.902-0.901-0.902h-3.536c-0.499 0-0.902 0.402-0.902 0.902v3.535c0 0.499 0.402 0.902 0.902 0.902h3.536c0.499 0 0.901-0.402 0.901-0.902v-3.535zM17.607 5.996v2.783c0 0.393-0.316 0.71-0.709 0.71h-2.783c-0.393 0-0.709-0.317-0.709-0.71v-2.783c0-0.393 0.316-0.71 0.709-0.71h2.783c0.393 0 0.709 0.317 0.709 0.71z"></path>
</svg>
