<!-- Generated by IcoMoon.io -->
<svg version="1.1" xmlns="http://www.w3.org/2000/svg" width="26" height="32" viewBox="0 0 26 32">
<title>tetris-T</title>
<path d="M5.679 12.772c-0.497 0-0.896-0.398-0.896-0.893v-3.503c0-0.495 0.4-0.893 0.896-0.893h3.515c0.497 0 0.896 0.398 0.896 0.893v3.503c0 0.495-0.4 0.893-0.896 0.893h-3.515zM6.053 12.209h2.767c0.391 0 0.706-0.313 0.706-0.703v-2.757c0-0.39-0.315-0.703-0.706-0.703h-2.767c-0.391 0-0.706 0.313-0.706 0.703v2.757c0 0.389 0.315 0.703 0.706 0.703z"></path>
<path d="M11.043 18.117c-0.497 0-0.896-0.398-0.896-0.893v-3.503c0-0.495 0.4-0.893 0.896-0.893h3.515c0.497 0 0.896 0.398 0.896 0.893v3.503c0 0.495-0.4 0.893-0.896 0.893h-3.515zM11.417 17.554h2.767c0.391 0 0.706-0.313 0.706-0.703v-2.757c0-0.389-0.315-0.703-0.706-0.703h-2.767c-0.391 0-0.706 0.313-0.706 0.703v2.757c0 0.39 0.315 0.703 0.706 0.703z"></path>
<path d="M11.043 12.772c-0.497 0-0.896-0.398-0.896-0.893v-3.503c0-0.495 0.4-0.893 0.896-0.893h3.515c0.497 0 0.896 0.398 0.896 0.893v3.503c0 0.495-0.4 0.893-0.896 0.893h-3.515zM11.417 12.209h2.767c0.391 0 0.706-0.313 0.706-0.703v-2.757c0-0.389-0.315-0.703-0.706-0.703h-2.767c-0.391 0-0.706 0.313-0.706 0.703v2.757c0 0.389 0.315 0.703 0.706 0.703z"></path>
<path d="M16.407 12.772c-0.497 0-0.896-0.398-0.896-0.893v-3.503c0-0.495 0.4-0.893 0.896-0.893h3.515c0.497 0 0.896 0.398 0.896 0.893v3.503c0 0.495-0.4 0.893-0.896 0.893h-3.515zM16.781 12.209h2.767c0.391 0 0.706-0.313 0.706-0.703v-2.757c0-0.389-0.315-0.703-0.706-0.703h-2.767c-0.391 0-0.706 0.313-0.706 0.703v2.757c0 0.389 0.315 0.703 0.706 0.703z"></path>
</svg>
