<!-- Generated by IcoMoon.io -->
<svg version="1.1" xmlns="http://www.w3.org/2000/svg" width="26" height="32" viewBox="0 0 26 32">
<title>tetris-S</title>
<path d="M14.562 12.826c0.498 0 0.899 0.401 0.899 0.898v3.523c0 0.498-0.401 0.898-0.899 0.898h-3.524c-0.498 0-0.899-0.401-0.899-0.898v-3.523c0-0.498 0.401-0.898 0.899-0.898h3.524zM14.187 13.393h-2.774c-0.392 0-0.708 0.315-0.708 0.707v2.774c0 0.392 0.316 0.707 0.708 0.707h2.774c0.392 0 0.708-0.315 0.708-0.707v-2.774c0-0.392-0.316-0.707-0.708-0.707z"></path>
<path d="M9.189 12.826c0.498 0 0.899 0.401 0.899 0.898v3.523c0 0.498-0.401 0.898-0.899 0.898h-3.524c-0.498 0-0.899-0.401-0.899-0.898v-3.523c0-0.498 0.401-0.898 0.899-0.898h3.524zM8.815 13.393h-2.774c-0.392 0-0.708 0.315-0.708 0.707v2.774c0 0.392 0.316 0.707 0.708 0.707h2.774c0.392 0 0.708-0.315 0.708-0.707v-2.774c0-0.392-0.316-0.707-0.708-0.707z"></path>
<path d="M14.562 7.454c0.498 0 0.899 0.401 0.899 0.898v3.523c0 0.498-0.401 0.898-0.899 0.898h-3.524c-0.498 0-0.899-0.401-0.899-0.898v-3.523c0-0.498 0.401-0.898 0.899-0.898h3.524zM14.187 8.020h-2.774c-0.392 0-0.708 0.315-0.708 0.707v2.774c0 0.392 0.316 0.707 0.708 0.707h2.774c0.392 0 0.708-0.315 0.708-0.707v-2.774c0-0.392-0.316-0.707-0.708-0.707z"></path>
<path d="M19.934 7.454c0.498 0 0.899 0.401 0.899 0.898v3.523c0 0.498-0.401 0.898-0.899 0.898h-3.524c-0.498 0-0.899-0.401-0.899-0.898v-3.523c0-0.498 0.401-0.898 0.899-0.898h3.524zM19.559 8.020h-2.774c-0.392 0-0.708 0.315-0.708 0.707v2.774c0 0.392 0.316 0.707 0.708 0.707h2.774c0.392 0 0.708-0.315 0.708-0.707v-2.774c0-0.392-0.316-0.707-0.708-0.707z"></path>
</svg>
