<svg xmlns:dc="http://purl.org/dc/elements/1.1/" xmlns:cc="http://creativecommons.org/ns#" xmlns:rdf="http://www.w3.org/1999/02/22-rdf-syntax-ns#" xmlns:svg="http://www.w3.org/2000/svg" xmlns="http://www.w3.org/2000/svg" xmlns:sodipodi="http://sodipodi.sourceforge.net/DTD/sodipodi-0.dtd" xmlns:inkscape="http://www.inkscape.org/namespaces/inkscape" viewBox="0 0 100 125" version="1.1" x="0px" y="0px"><g transform="translate(0,-952.36218)"><path style="opacity:1;fill:#000000;fill-opacity:1;stroke:none;stroke-opacity:1" d="m 56.881923,1002.4642 c 1.944654,0 3.510206,1.5652 3.510206,3.5093 l 0,13.763 c 0,1.9441 -1.565552,3.5093 -3.510206,3.5093 l -13.763847,0 c -1.944654,0 -3.510205,-1.5652 -3.510205,-3.5093 l 0,-13.763 c 0,-1.9441 1.565551,-3.5093 3.510205,-3.5093 l 13.763847,0 z m -1.464415,2.2126 -10.83502,0 c -1.530898,0 -2.764288,1.2303 -2.764288,2.7608 l 0,10.8348 c 0,1.5305 1.23339,2.7609 2.764288,2.7609 l 10.83502,0 c 1.530898,0 2.764288,-1.2304 2.764288,-2.7609 l 0,-10.8348 c 0,-1.5305 -1.23339,-2.7608 -2.764288,-2.7608 z"/><path d="m 35.896231,1002.4642 c 1.944654,0 3.510206,1.5652 3.510206,3.5093 l 0,13.763 c 0,1.9441 -1.565552,3.5093 -3.510206,3.5093 l -13.763847,0 c -1.944654,0 -3.510205,-1.5652 -3.510205,-3.5093 l 0,-13.763 c 0,-1.9441 1.565551,-3.5093 3.510205,-3.5093 l 13.763847,0 z m -1.464415,2.2126 -10.83502,0 c -1.530898,0 -2.764288,1.2303 -2.764288,2.7608 l 0,10.8348 c 0,1.5305 1.23339,2.7609 2.764288,2.7609 l 10.83502,0 c 1.530898,0 2.764288,-1.2304 2.764288,-2.7609 l 0,-10.8348 c 0,-1.5305 -1.23339,-2.7608 -2.764288,-2.7608 z" style="opacity:1;fill:#000000;fill-opacity:1;stroke:none;stroke-opacity:1"/><path d="m 56.881923,981.47853 c 1.944654,0 3.510206,1.5652 3.510206,3.50931 l 0,13.763 c 0,1.94406 -1.565552,3.50926 -3.510206,3.50926 l -13.763847,0 c -1.944654,0 -3.510205,-1.5652 -3.510205,-3.50926 l 0,-13.763 c 0,-1.94411 1.565551,-3.50931 3.510205,-3.50931 l 13.763847,0 z m -1.464415,2.2126 -10.83502,0 c -1.530898,0 -2.764288,1.2303 -2.764288,2.7608 l 0,10.8348 c 0,1.5305 1.23339,2.76087 2.764288,2.76087 l 10.83502,0 c 1.530898,0 2.764288,-1.23037 2.764288,-2.76087 l 0,-10.8348 c 0,-1.5305 -1.23339,-2.7608 -2.764288,-2.7608 z" style="opacity:1;fill:#000000;fill-opacity:1;stroke:none;stroke-opacity:1"/><path style="opacity:1;fill:#000000;fill-opacity:1;stroke:none;stroke-opacity:1" d="m 77.867615,981.47853 c 1.944654,0 3.510206,1.5652 3.510206,3.50931 l 0,13.763 c 0,1.94406 -1.565552,3.50926 -3.510206,3.50926 l -13.763847,0 c -1.944654,0 -3.510205,-1.5652 -3.510205,-3.50926 l 0,-13.763 c 0,-1.94411 1.565551,-3.50931 3.510205,-3.50931 l 13.763847,0 z m -1.464415,2.2126 -10.83502,0 c -1.530898,0 -2.764288,1.2303 -2.764288,2.7608 l 0,10.8348 c 0,1.5305 1.23339,2.76087 2.764288,2.76087 l 10.83502,0 c 1.530898,0 2.764288,-1.23037 2.764288,-2.76087 l 0,-10.8348 c 0,-1.5305 -1.23339,-2.7608 -2.764288,-2.7608 z"/></g></svg>