<!-- Generated by IcoMoon.io -->
<svg version="1.1" xmlns="http://www.w3.org/2000/svg" width="26" height="32" viewBox="0 0 26 32">
<title>tetris-Z</title>
<path d="M5.656 7.449c-0.498 0-0.899 0.401-0.899 0.898v3.523c0 0.498 0.401 0.898 0.899 0.898h3.524c0.498 0 0.899-0.401 0.899-0.898v-3.523c0-0.498-0.401-0.898-0.899-0.898h-3.524zM6.030 8.015h2.774c0.392 0 0.708 0.315 0.708 0.707v2.774c0 0.392-0.316 0.707-0.708 0.707h-2.774c-0.392 0-0.708-0.315-0.708-0.707v-2.774c0-0.392 0.316-0.707 0.708-0.707z"></path>
<path d="M11.038 7.449c-0.498 0-0.899 0.401-0.899 0.898v3.523c0 0.498 0.401 0.898 0.899 0.898h3.524c0.498 0 0.899-0.401 0.899-0.898v-3.523c0-0.498-0.401-0.898-0.899-0.898h-3.524zM11.413 8.015h2.774c0.392 0 0.708 0.315 0.708 0.707v2.774c0 0.392-0.316 0.707-0.708 0.707h-2.774c-0.392 0-0.708-0.315-0.708-0.707v-2.774c0-0.392 0.316-0.707 0.708-0.707z"></path>
<path d="M11.038 12.831c-0.498 0-0.899 0.401-0.899 0.898v3.523c0 0.498 0.401 0.898 0.899 0.898h3.524c0.498 0 0.899-0.401 0.899-0.898v-3.523c0-0.498-0.401-0.898-0.899-0.898h-3.524zM11.413 13.398h2.774c0.392 0 0.708 0.315 0.708 0.707v2.774c0 0.392-0.316 0.707-0.708 0.707h-2.774c-0.392 0-0.708-0.315-0.708-0.707v-2.774c0-0.392 0.316-0.707 0.708-0.707z"></path>
<path d="M16.421 12.831c-0.498 0-0.899 0.401-0.899 0.898v3.523c0 0.498 0.401 0.898 0.899 0.898h3.524c0.498 0 0.899-0.401 0.899-0.898v-3.523c0-0.498-0.401-0.898-0.899-0.898h-3.524zM16.796 13.398h2.774c0.392 0 0.708 0.315 0.708 0.707v2.774c0 0.392-0.316 0.707-0.708 0.707h-2.774c-0.392 0-0.708-0.315-0.708-0.707v-2.774c0-0.392 0.316-0.707 0.708-0.707z"></path>
</svg>
