<!-- Generated by IcoMoon.io -->
<svg version="1.1" xmlns="http://www.w3.org/2000/svg" width="26" height="32" viewBox="0 0 26 32">
<title>tetris-O</title>
<path d="M8.478 7.605c-0.483 0-0.873 0.389-0.873 0.873v3.422c0 0.483 0.389 0.873 0.873 0.873h3.422c0.483 0 0.873-0.389 0.873-0.873v-3.422c0-0.483-0.389-0.873-0.873-0.873h-3.422zM8.842 8.155h2.694c0.381 0 0.687 0.306 0.687 0.687v2.694c0 0.381-0.307 0.687-0.687 0.687h-2.694c-0.381 0-0.687-0.306-0.687-0.687v-2.694c0-0.381 0.307-0.687 0.687-0.687z"></path>
<path d="M13.7 7.605c-0.483 0-0.873 0.389-0.873 0.873v3.422c0 0.483 0.389 0.873 0.873 0.873h3.422c0.483 0 0.873-0.389 0.873-0.873v-3.422c0-0.483-0.389-0.873-0.873-0.873h-3.422zM14.064 8.155h2.694c0.381 0 0.687 0.306 0.687 0.687v2.694c0 0.381-0.307 0.687-0.687 0.687h-2.694c-0.381 0-0.687-0.306-0.687-0.687v-2.694c0-0.381 0.307-0.687 0.687-0.687z"></path>
<path d="M8.478 12.827c-0.483 0-0.873 0.389-0.873 0.873v3.422c0 0.483 0.389 0.873 0.873 0.873h3.422c0.483 0 0.873-0.389 0.873-0.873v-3.422c0-0.483-0.389-0.873-0.873-0.873h-3.422zM8.842 13.377h2.694c0.381 0 0.687 0.306 0.687 0.687v2.694c0 0.381-0.307 0.686-0.687 0.686h-2.694c-0.381 0-0.687-0.306-0.687-0.686v-2.694c0-0.381 0.307-0.687 0.687-0.687z"></path>
<path d="M13.7 12.827c-0.483 0-0.873 0.389-0.873 0.873v3.422c0 0.483 0.389 0.873 0.873 0.873h3.422c0.483 0 0.873-0.389 0.873-0.873v-3.422c0-0.483-0.389-0.873-0.873-0.873h-3.422zM14.064 13.377h2.694c0.381 0 0.687 0.306 0.687 0.687v2.694c0 0.381-0.307 0.686-0.687 0.686h-2.694c-0.381 0-0.687-0.306-0.687-0.686v-2.694c0-0.381 0.307-0.687 0.687-0.687z"></path>
</svg>
