<svg xmlns:dc="http://purl.org/dc/elements/1.1/" xmlns:cc="http://creativecommons.org/ns#" xmlns:rdf="http://www.w3.org/1999/02/22-rdf-syntax-ns#" xmlns:svg="http://www.w3.org/2000/svg" xmlns="http://www.w3.org/2000/svg" xmlns:sodipodi="http://sodipodi.sourceforge.net/DTD/sodipodi-0.dtd" xmlns:inkscape="http://www.inkscape.org/namespaces/inkscape" viewBox="0 0 100 125" version="1.1" x="0px" y="0px"><g transform="translate(0,-952.36218)"><path d="m 29.036091,974.38424 c 0,-1.95093 1.570605,-3.52153 3.521537,-3.52153 l 13.811052,0 c 1.950933,0 3.521539,1.5706 3.521539,3.52153 l 0,13.80828 c 0,1.95093 -1.570606,3.52154 -3.521539,3.52154 l -13.811052,0 c -1.950932,0 -3.521537,-1.57061 -3.521537,-3.52154 l 0,-13.80828 z m 2.220259,1.46915 0,10.86999 c 0,1.53584 1.23451,2.77324 2.770465,2.77324 l 10.87268,0 c 1.535953,0 2.770464,-1.2374 2.770464,-2.77324 l 0,-10.86999 c 0,-1.53584 -1.234511,-2.77322 -2.770464,-2.77322 l -10.87268,0 c -1.535955,0 -2.770465,1.23738 -2.770465,2.77322 z" style="opacity:1;fill:#000000;fill-opacity:1;stroke:none;stroke-opacity:1"/><path style="opacity:1;fill:#000000;fill-opacity:1;;stroke-opacity:1" d="m 29.036091,995.45801 c 0,-1.95093 1.570605,-3.52153 3.521537,-3.52153 l 13.811052,0 c 1.950933,0 3.521539,1.5706 3.521539,3.52153 l 0,13.80829 c 0,1.9509 -1.570606,3.5215 -3.521539,3.5215 l -13.811052,0 c -1.950932,0 -3.521537,-1.5706 -3.521537,-3.5215 l 0,-13.80829 z m 2.220259,1.46919 0,10.87 c 0,1.5359 1.23451,2.7732 2.770465,2.7732 l 10.87268,0 c 1.535953,0 2.770464,-1.2373 2.770464,-2.7732 l 0,-10.87 c 0,-1.53595 -1.234511,-2.77328 -2.770464,-2.77328 l -10.87268,0 c -1.535955,0 -2.770465,1.23733 -2.770465,2.77328 z"/><path style="opacity:1;fill:#000000;fill-opacity:1;stroke-opacity:1" d="m 50.109963,1016.5318 c 0,-1.9509 1.570606,-3.5216 3.521538,-3.5216 l 13.810869,0 c 1.950932,0 3.521539,1.5707 3.521539,3.5216 l 0,13.8084 c 0,1.9509 -1.570607,3.5215 -3.521539,3.5215 l -13.810869,0 c -1.950932,0 -3.521538,-1.5706 -3.521538,-3.5215 l 0,-13.8084 z m 2.220119,1.4692 0,10.8699 c 0,1.5359 1.234651,2.7732 2.770465,2.7732 l 10.872778,0 c 1.535672,0 2.770324,-1.2373 2.770324,-2.7732 l 0,-10.8699 c 0,-1.5359 -1.234652,-2.7733 -2.770324,-2.7733 l -10.872778,0 c -1.535814,0 -2.770465,1.2374 -2.770465,2.7733 z"/><path d="m 29.036091,1016.5318 c 0,-1.9509 1.570605,-3.5216 3.521537,-3.5216 l 13.811052,0 c 1.950933,0 3.521539,1.5707 3.521539,3.5216 l 0,13.8084 c 0,1.9509 -1.570606,3.5215 -3.521539,3.5215 l -13.811052,0 c -1.950932,0 -3.521537,-1.5706 -3.521537,-3.5215 l 0,-13.8084 z m 2.220259,1.4692 0,10.8699 c 0,1.5359 1.23451,2.7732 2.770465,2.7732 l 10.87268,0 c 1.535953,0 2.770464,-1.2373 2.770464,-2.7732 l 0,-10.8699 c 0,-1.5359 -1.234511,-2.7733 -2.770464,-2.7733 l -10.87268,0 c -1.535955,0 -2.770465,1.2374 -2.770465,2.7733 z" style="opacity:1;fill:#000000;fill-opacity:1;stroke:none;stroke-opacity:1"/></g></svg>