<!-- Generated by IcoMoon.io -->
<svg version="1.1" xmlns="http://www.w3.org/2000/svg" width="26" height="32" viewBox="0 0 26 32">
<title>tetris-I</title>
<path d="M22.568 15.417c0.49 0 0.884-0.394 0.884-0.884v-3.466c0-0.49-0.394-0.884-0.884-0.884h-3.466c-0.49 0-0.884 0.394-0.884 0.884v3.466c0 0.49 0.394 0.884 0.884 0.884h3.466zM22.2 14.859h-2.728c-0.386 0-0.696-0.31-0.696-0.695v-2.728c0-0.385 0.311-0.695 0.696-0.695h2.728c0.386 0 0.696 0.31 0.696 0.695v2.728c0 0.386-0.311 0.695-0.696 0.695z"></path>
<path d="M17.211 15.417c0.49 0 0.884-0.394 0.884-0.884v-3.466c0-0.49-0.394-0.884-0.884-0.884h-3.466c-0.49 0-0.884 0.394-0.884 0.884v3.466c0 0.49 0.394 0.884 0.884 0.884h3.466zM16.843 14.859h-2.728c-0.386 0-0.696-0.31-0.696-0.695v-2.728c0-0.385 0.311-0.695 0.696-0.695h2.728c0.386 0 0.696 0.31 0.696 0.695v2.728c0 0.386-0.311 0.695-0.696 0.695z"></path>
<path d="M11.855 15.417c0.49 0 0.884-0.394 0.884-0.884v-3.466c0-0.49-0.394-0.884-0.884-0.884h-3.466c-0.49 0-0.884 0.394-0.884 0.884v3.466c0 0.49 0.394 0.884 0.884 0.884h3.466zM11.486 14.859h-2.728c-0.386 0-0.696-0.31-0.696-0.695v-2.728c0-0.385 0.311-0.695 0.696-0.695h2.728c0.386 0 0.696 0.31 0.696 0.695v2.728c0 0.386-0.311 0.695-0.696 0.695z"></path>
<path d="M6.498 15.417c0.49 0 0.884-0.394 0.884-0.884v-3.466c0-0.49-0.394-0.884-0.884-0.884h-3.466c-0.49 0-0.884 0.394-0.884 0.884v3.466c0 0.49 0.394 0.884 0.884 0.884h3.466zM6.129 14.859h-2.728c-0.385 0-0.696-0.31-0.696-0.695v-2.728c0-0.385 0.311-0.695 0.696-0.695h2.728c0.385 0 0.696 0.31 0.696 0.695v2.728c0 0.386-0.311 0.695-0.696 0.695z"></path>
</svg>
