<svg xmlns:dc="http://purl.org/dc/elements/1.1/" xmlns:cc="http://creativecommons.org/ns#" xmlns:rdf="http://www.w3.org/1999/02/22-rdf-syntax-ns#" xmlns:svg="http://www.w3.org/2000/svg" xmlns="http://www.w3.org/2000/svg" xmlns:sodipodi="http://sodipodi.sourceforge.net/DTD/sodipodi-0.dtd" xmlns:inkscape="http://www.inkscape.org/namespaces/inkscape" viewBox="0 0 100 125" version="1.1" x="0px" y="0px"><g transform="translate(0,-952.36218)"><path style="opacity:1;fill:#000000;fill-opacity:1;stroke:none;stroke-opacity:1" d="m 33.117741,982.06987 c -1.88843,0 -3.408718,1.52029 -3.408718,3.40873 l 0,13.36854 c 0,1.88846 1.520288,3.40886 3.408718,3.40886 l 13.365897,0 c 1.88843,0 3.408719,-1.5204 3.408719,-3.40886 l 0,-13.36854 c 0,-1.88844 -1.520289,-3.40873 -3.408719,-3.40873 l -13.365897,0 z m 1.422074,2.14909 10.52175,0 c 1.486636,0 2.684365,1.19506 2.684365,2.6817 l 0,10.52441 c 0,1.48665 -1.197729,2.68173 -2.684365,2.68173 l -10.52175,0 c -1.486635,0 -2.684365,-1.19508 -2.684365,-2.68173 l 0,-10.52441 c 0,-1.48664 1.19773,-2.6817 2.684365,-2.6817 z"/><path d="m 53.516362,982.06987 c -1.88843,0 -3.408719,1.52029 -3.408719,3.40873 l 0,13.36854 c 0,1.88846 1.520289,3.40886 3.408719,3.40886 l 13.365897,0 c 1.88843,0 3.408718,-1.5204 3.408718,-3.40886 l 0,-13.36854 c 0,-1.88844 -1.520288,-3.40873 -3.408718,-3.40873 l -13.365897,0 z m 1.422074,2.14909 10.521751,0 c 1.486635,0 2.684363,1.19507 2.684363,2.6817 l 0,10.52441 c 0,1.48665 -1.197728,2.68173 -2.684363,2.68173 l -10.521751,0 c -1.486637,0 -2.684365,-1.19508 -2.684365,-2.68173 l 0,-10.52441 c 0,-1.48663 1.197728,-2.6817 2.684365,-2.6817 z" style="opacity:1;fill:#000000;fill-opacity:1;stroke:none;stroke-opacity:1"/><path d="m 33.117741,1002.4684 c -1.88843,0 -3.408718,1.5204 -3.408718,3.4088 l 0,13.3685 c 0,1.8885 1.520288,3.4088 3.408718,3.4088 l 13.365897,0 c 1.88843,0 3.408719,-1.5203 3.408719,-3.4088 l 0,-13.3685 c 0,-1.8884 -1.520289,-3.4088 -3.408719,-3.4088 l -13.365897,0 z m 1.422074,2.1491 10.52175,0 c 1.486636,0 2.684365,1.1952 2.684365,2.6818 l 0,10.5243 c 0,1.4867 -1.197729,2.6817 -2.684365,2.6817 l -10.52175,0 c -1.486635,0 -2.684365,-1.195 -2.684365,-2.6817 l 0,-10.5243 c 0,-1.4866 1.19773,-2.6818 2.684365,-2.6818 z" style="opacity:1;fill:#000000;fill-opacity:1;stroke:none;stroke-opacity:1"/><path style="opacity:1;fill:#000000;fill-opacity:1;stroke:none;stroke-opacity:1" d="m 53.516362,1002.4684 c -1.88843,0 -3.408719,1.5204 -3.408719,3.4088 l 0,13.3685 c 0,1.8885 1.520289,3.4088 3.408719,3.4088 l 13.365897,0 c 1.88843,0 3.408718,-1.5203 3.408718,-3.4088 l 0,-13.3685 c 0,-1.8884 -1.520288,-3.4088 -3.408718,-3.4088 l -13.365897,0 z m 1.422074,2.1491 10.521751,0 c 1.486635,0 2.684363,1.1952 2.684363,2.6818 l 0,10.5243 c 0,1.4867 -1.197728,2.6817 -2.684363,2.6817 l -10.521751,0 c -1.486637,0 -2.684365,-1.195 -2.684365,-2.6817 l 0,-10.5243 c 0,-1.4866 1.197728,-2.6818 2.684365,-2.6818 z"/></g><text x="0" y="115" fill="#000000" font-size="5px" font-weight="bold" font-family="'Helvetica Neue', Helvetica, Arial-Unicode, Arial, Sans-serif">Created by Kyle Dodson</text><text x="0" y="120" fill="#000000" font-size="5px" font-weight="bold" font-family="'Helvetica Neue', Helvetica, Arial-Unicode, Arial, Sans-serif">from the Noun Project</text></svg>